<svg width="31" height="22" viewBox="0 0 31 22" fill="none" xmlns="http://www.w3.org/2000/svg">
<path d="M0.790503 21.6145H29.4844C29.7951 21.6145 30.0469 21.3626 30.0469 21.052C30.0469 20.7413 29.7951 20.4895 29.4844 20.4895H0.790503C0.479815 20.4895 0.228003 20.7413 0.228003 21.052C0.228003 21.3626 0.479815 21.6145 0.790503 21.6145ZM0.790503 11.5463H29.4844C29.7951 11.5463 30.0469 11.2945 30.0469 10.9838C30.0469 10.6731 29.7951 10.4213 29.4844 10.4213H0.790503C0.479815 10.4213 0.228003 10.6731 0.228003 10.9838C0.228003 11.2945 0.479815 11.5463 0.790503 11.5463ZM0.790503 1.47827H29.4844C29.7951 1.47827 30.0469 1.22646 30.0469 0.915771C30.0469 0.605084 29.7951 0.353271 29.4844 0.353271H0.790503C0.479815 0.353271 0.228003 0.605084 0.228003 0.915771C0.228003 1.22646 0.479815 1.47827 0.790503 1.47827Z" fill="white"/>
</svg>
